<?xml version="1.0" encoding="utf-8"?>
<!-- Generator: Adobe Illustrator 19.0.0, SVG Export Plug-In . SVG Version: 6.00 Build 0)  -->
<svg version="1.1" id="layer" xmlns="http://www.w3.org/2000/svg" xmlns:xlink="http://www.w3.org/1999/xlink" x="0px" y="0px"
	 viewBox="-153 -46 652 652" style="enable-background:new -153 -46 652 652;" xml:space="preserve">
<style type="text/css">
	.st0{fill:#28387D;}
	.st1{fill:#088C45;}
	.st2{fill:#F37A21;}
	.st3{fill:#434345;}
</style>
<path class="st0" d="M330.1,287.1c-0.9,3.2-2.7,5.9-5.6,8.1c-2.8,2.2-5.8,3.3-9,3.3H202c-3.2,0-5.5-1.1-7.1-3.3
	c-1.6-2.2-1.9-4.9-1-8.1l25.3-91.2c0.9-3.2,2.7-5.9,5.5-8.1c2.8-2.2,5.7-3.3,8.9-3.3h113.6c3.3,0,5.7,1.1,7.3,3.3
	c1.6,2.2,1.9,4.9,0.9,8.2l-3,10.8H238.8l-19.2,69.4h113.5L330.1,287.1z M397.2,184.6h-22.7L343,298.4h22.7L397.2,184.6z M54.3,184.4
	H31.6L10.9,259l-91.1-74.4l-31.6,114.2h22.7l20.5-74.1L22.5,299L54.3,184.4z M202.2,187.7c-1.6-2.2-4-3.3-7.3-3.3H70.3l-6.2,22.3
	l113.4,0l-6.6,23.8l-113.3,0l-18.9,67.8h22.7L74,252.8h102c3.2,0,6.2-1.1,9-3.3c2.8-2.2,4.7-4.9,5.6-8.1l12.6-45.6
	C204.1,192.6,203.7,189.9,202.2,187.7"/>
<polygon class="st1" points="440.1,184.5 468.8,241.6 408.5,298.6 "/>
<polygon class="st2" points="420,184.5 448.6,241.6 388.3,298.6 "/>
<path class="st3" d="M400.6,317c-0.5-0.6-0.9-1.2-1.4-1.8c-1.5-1.7-2.9-2.9-4.3-3.8c-1.1-0.7-2.1-1.2-3.1-1.5
	c-1.1-0.4-2.2-0.5-3.3-0.5c-2.1,0-3.9,0.4-5.4,1.3c-1.5,0.9-2.5,2.2-3,3.9c-0.2,0.7-0.2,1.3,0,1.9l0,0.1c0,0.1,0.1,0.3,0.1,0.5h-3.8
	l-0.5,1.8h3.7l-4.4,16.4h2.7l4.4-16.4H400l-1.1,4.2h-10.8c-0.4,0-0.7,0.1-1.2,0.2c-0.5,0.2-0.8,0.5-0.9,1.1c-0.1,0.3,0,0.8,1.2,2.3
	l0.2,0.2c1,1.2,1.7,1.8,2.2,1.8c0.7,0,1.1-0.3,1.2-0.6l0.8-3.1h6.9l-2.8,10.4h2.6l4.4-16.4h9.5l-1.4,5.2l-2.4,0
	c-0.2,0-0.3,0.1-0.4,0.1c-0.6,0.1-0.9,0.4-1,0.7c-0.2,0.7,0.2,1.6,1.3,2.7c1.1,1.1,2,1.6,2.7,1.6c0.6,0,1.1-0.3,1.3-0.8
	c0.1-0.2,0.2-0.4,0.2-0.7l2.4-8.8h6.3l-4.4,16.4h2.7l4.4-16.4h7.9l-1.6,5.8h-1.8c-0.2,0-0.5,0-0.8,0.1c-0.4,0.1-0.7,0.4-0.9,0.9
	c-0.1,0.5,0.3,1.3,1.3,2.4c1,1.1,1.8,1.7,2.4,1.7c0.5,0,0.9-0.2,1.1-0.5c0.1-0.1,0.1-0.3,0.1-0.5l0.6-2.3h7.3l-2.4,8.7h2.6l4.4-16.4
	h3.5l0.5-1.8H400.6z M441.7,318.8l-1.6,5.8h-7.3l1.6-5.8H441.7z M384.6,312.1c1.1-0.7,2.1-1,3.2-1c1.1,0,2.2,0.3,3.3,0.7
	c0.6,0.3,1.2,0.6,1.7,0.9c1.3,0.8,2.5,1.8,3.5,3.1l0.3,0.3c0.2,0.3,0.4,0.5,0.6,0.8h-14.6c-0.1-0.2-0.1-0.3-0.1-0.4c0,0,0-0.1,0-0.1
	c-0.1-0.6-0.1-1.2,0.1-1.7C382.9,313.7,383.6,312.8,384.6,312.1 M280.7,317h82.3l-0.5,1.8h-3.5l-4.4,16.4h-2.6l2.8-10.4h-6.9
	l-0.8,3.1c-0.2,0.4-0.6,0.6-1.2,0.6c-0.5,0-1.1-0.5-2.2-1.8c-1.3-1.6-1.4-2.2-1.3-2.4c0.1-0.5,0.5-0.9,0.9-1.1
	c0.4-0.1,0.8-0.2,1.2-0.2l10.8,0l1.1-4.2h-17.7l-4.4,16.4h-2.6l4.4-16.4h-6.3l-4.4,16.4h-2.6l3-11.2h-7.6c-1,0-1.8,0.2-2.3,0.5
	c-0.5,0.3-0.8,0.7-1,1.3c-0.4,1.6,0.1,3.4,1.4,5.2c0.5,0.7,1.3,1.5,2.3,2.4l0.2,0.2l-2.1,1.4l-0.1-0.1c-1.1-1-2-1.9-2.6-2.7
	c-1.7-2.2-2.2-4.3-1.7-6.3c0.3-1.2,0.9-2,1.9-2.6c0.9-0.6,2-0.9,3.3-0.9h8.8l1-3.5h-18l-4.4,16.4h-2.7l4.4-16.4h-6.3l-2.4,8.8
	c0,0.3-0.1,0.6-0.2,0.8c-0.3,0.5-0.7,0.8-1.3,0.8c-0.8,0-1.6-0.5-2.7-1.6c-1-1.1-1.5-2-1.3-2.7c0.1-0.5,0.7-0.7,1-0.7
	c0.1,0,0.1,0,0.2,0l0.2,0l2.4,0l1.4-5.2h-9.6l-4.3,16c0.7,0.2,1.3,0.5,1.8,1c0.8,0.8,1,1.8,0.7,2.9c-0.4,1.3-1.2,2.4-2.6,3.2
	c-1.3,0.8-3,1.2-4.9,1.2c-2.3,0-4.4-0.6-6.3-1.8c-0.7-0.4-1.3-1-2.1-1.9l-0.2-0.2l2.1-1.7l0.1,0.2c0.6,0.8,1.1,1.3,1.6,1.7
	c1.4,1.2,3,1.8,4.8,1.8c1.1,0,2.1-0.3,3-0.7c0.9-0.5,1.5-1.1,1.7-2c0.2-0.5,0.1-1-0.3-1.3c-0.3-0.4-0.8-0.5-1.5-0.5
	c-0.6,0-1.3,0.2-2,0.7c-0.2,0.1-0.4,0.3-0.9,0.7l-0.1,0.1l-1.7-1.6l0.2-0.1c0.6-0.4,1.1-0.7,1.5-0.9c0.8-0.4,1.6-0.6,2.4-0.8
	l2.1-7.7h-6.4l-0.6,2.4c0,0.2-0.1,0.5-0.2,0.7c-0.2,0.4-0.7,0.4-1.1,0.4c-0.3,0-0.9-0.2-2.5-1.9c-1.6-1.7-1.7-2.3-1.6-2.6
	c0.1-0.3,0.3-0.5,0.7-0.8c0.4-0.2,0.6-0.3,0.8-0.3h2.5l1.5-5.4c0.1-0.4,0.1-0.7-0.1-1c-0.2-0.2-0.7-0.4-1.4-0.4
	c-0.6,0-1,0.1-1.4,0.4c-0.4,0.3-0.7,0.7-0.8,1.2c-0.1,0.4-0.1,0.9,0,1.3c0,0,0.1,0.1,0.1,0.2l0.2,0.3H270l-0.1-0.1
	c-0.1-0.2-0.1-0.4-0.2-0.5l0-0.1c-0.1-0.6-0.1-1,0-1.3c0.3-1.1,1-1.9,1.9-2.5c1-0.5,2.1-0.8,3.3-0.8c1.2,0,2.2,0.3,2.8,0.9
	c0.7,0.6,0.9,1.4,0.7,2.4l-1.4,5.2h6.4l1.7-6.3h-5L280.7,317z M229.9,313.5c-0.9-2-2.3-3.2-4.2-3.6c-0.6-0.1-1.2-0.2-2-0.2
	c-1.6,0-2.9,0.4-4,1c-1.1,0.7-1.9,1.8-2.3,3.2c-0.2,0.7-0.1,1.5,0.1,2.4c0,0.2,0.1,0.4,0.2,0.7h-49.5l-0.5,1.8h10.8l-1.1,4.1
	c-0.2,0.6-0.5,1.1-1.1,1.5c-0.6,0.4-1.3,0.6-2.2,0.6c-0.5,0-1-0.1-1.4-0.2c-0.5-0.2-0.6-0.4-0.6-0.5l-1.1-2.6l-2.4,1.2l0.1,0.2
	c0.3,0.6,0.5,1.1,0.6,1.5c0.5,1.2,1.2,2.5,2.1,4.1c0.6,1,1.4,2.2,2.3,3.4c0.7,1,1.5,2,2.4,3l0.1,0.1l2.3-1.5l-0.2-0.2
	c-0.3-0.3-0.5-0.5-0.7-0.7c-0.2-0.2-0.4-0.4-0.5-0.6c-0.4-0.5-0.7-0.9-1-1.3c-0.4-0.5-0.7-0.9-1-1.3l-1.8-3.1c1,0.2,2.2,0,3.5-0.4
	c0.9-0.3,1.7-0.8,2.2-1.3c0.5-0.5,0.8-1.1,1-1.7l1.2-4.4h6.9l-4.4,16.4h2.6l4.4-16.4h6l-1.8,6.5c-0.4,1.4,0,2.5,1,3.4
	c1,0.9,2.4,1.3,4.1,1.3c0.7,0,1.5-0.1,2.3-0.4c0.5-0.1,1-0.3,1.6-0.5c0.1,0.8,0.5,1.6,1.1,2.3c0.1,0.2,0.3,0.4,0.5,0.5l0,0.1
	c1,0.9,2.2,1.6,3.6,1.9l-8.9,6.1h3.9l6.7-5.2l3.5,5.2h3.2l-4.6-5.9c1.2-0.1,2.2-0.4,3.1-0.8c1.3-0.5,2.6-1.3,3.8-2.5l0.2-0.2l-2-1.1
	l-0.1,0.1c-1.7,1.7-3.8,2.5-6.2,2.5c-1.8,0-3.2-0.5-4.2-1.6c-0.9-0.9-1.2-1.9-1.1-3c0-0.2,0.1-0.4,0.1-0.6c0.1-0.2,0.1-0.3,0.2-0.5
	c0.3-0.6,0.8-1.2,1.5-1.6c0.8-0.6,1.8-0.9,2.8-0.9h7.6l1.4-5.3h7.9l-4.4,16.4h2.6l4.4-16.4h8.7c0.3,0.4,0.6,0.7,0.7,1
	c0.4,0.9,0.6,1.6,0.4,2.3c-0.3,1-0.8,1.7-1.7,2.2c-0.7,0.4-1.6,0.6-2.7,0.6c-0.1,0-0.3,0-0.6-0.1c-0.1,0-0.3,0-0.4-0.1
	c-0.1,0-0.3-0.1-0.4-0.1l-0.2,0l0,0.2c-0.4,1.7-0.1,3.2,0.9,4.6c1,1.4,2.8,2.1,5.3,2.1h0.1c1.5,0,2.9-0.3,4.2-0.8
	c0.3-0.1,0.7-0.3,1.1-0.5l-1.4,5.1h2.7l4.4-16.4h3.5l0.5-1.8h-25.1C230.6,315.4,230.3,314.2,229.9,313.5 M242.8,319.7
	c-0.1-0.2-0.2-0.5-0.4-0.9h6.8l-2.3,8.4c-0.7,0.6-1.2,1-1.6,1.2c-1.4,0.8-2.8,1.3-4.2,1.3H241c-1.8,0-3-0.5-3.6-1.7
	c-0.2-0.3-0.3-0.8-0.4-1.5c1-0.2,1.9-0.4,2.5-0.7c1.9-0.8,3.1-2,3.5-3.7C243.3,321.5,243.2,320.6,242.8,319.7 M221.1,312.1
	c0.6-0.5,1.3-0.7,2.3-0.7c0.7,0,1.3,0.1,1.8,0.3c1.1,0.4,1.9,1.3,2.5,2.6c0.3,0.6,0.5,1.5,0.7,2.7h-8.1c-0.1-0.2-0.2-0.4-0.3-0.6
	l0-0.1c-0.2-0.8-0.2-1.5,0-2.3C220.2,313.2,220.6,312.5,221.1,312.1 M204.2,326.6C204.2,326.6,204.2,326.7,204.2,326.6l0,0.2
	c0,0.2-0.1,0.4-0.1,0.5c-0.2,0.1-0.4,0.2-0.7,0.3c-1,0.4-1.9,0.6-2.9,0.6h0c-1.1,0-1.9-0.3-2.4-0.7c-0.5-0.5-0.7-1.1-0.5-2l1.3-5
	L204.2,326.6z M217.6,318.8l-0.9,3.4H211c-1.3,0-2.5,0.3-3.6,0.9c-0.3,0.1-0.5,0.3-0.7,0.5c-0.6,0.4-1,0.8-1.4,1.3l-5.2-6H217.6z
	 M128.8,313.5c-0.9-2-2.3-3.2-4.2-3.6c-0.5-0.1-1.2-0.2-2-0.2c-1.6,0-2.9,0.4-4,1.1c-1.2,0.7-1.9,1.8-2.3,3.2
	c-0.2,0.7-0.1,1.5,0.1,2.4c0,0.2,0.1,0.4,0.2,0.7H67.1l-0.5,1.8h5l-1.7,6.3h-6.4l1.4-5.2c0.3-1,0-1.8-0.7-2.4
	c-0.7-0.6-1.6-0.9-2.8-0.9c-1.2,0-2.3,0.3-3.3,0.8c-1,0.6-1.6,1.4-1.9,2.5c-0.1,0.4-0.1,0.8,0,1.3c0,0.2,0.1,0.4,0.2,0.6l0.1,0.1H59
	l-0.3-0.3c-0.1-0.1-0.1-0.1-0.1-0.2c-0.1-0.4-0.1-0.9,0-1.3c0.1-0.5,0.4-0.9,0.8-1.2c0.4-0.3,0.9-0.4,1.4-0.4c0.7,0,1.2,0.1,1.4,0.4
	c0.2,0.2,0.2,0.6,0.1,1l-1.5,5.5h-2.4c-0.2,0-0.5,0.1-0.9,0.3c-0.4,0.2-0.6,0.4-0.7,0.8c0,0.2-0.2,0.7,1.6,2.6
	c1.6,1.7,2.2,1.9,2.5,1.9c0.4,0,0.9,0,1.1-0.4c0.1-0.2,0.2-0.5,0.2-0.7l0.6-2.4h6.4l-2.2,8.1h2.6l4.4-16.4h6.3l-4.4,16.4h2.7
	l4.4-16.4h13.3l-1.1,4.1c-0.2,0.6-0.5,1.1-1.1,1.5c-0.6,0.4-1.3,0.6-2.2,0.6c-0.5,0-1-0.1-1.4-0.2c-0.5-0.2-0.6-0.4-0.6-0.5
	l-1.1-2.6l-2.4,1.2l0.1,0.2c0.2,0.5,0.4,1,0.7,1.6c0.5,1.2,1.2,2.5,2.1,4.1c0.5,0.9,1.2,1.9,2.3,3.4c0.8,1.1,1.6,2.1,2.4,3l0.1,0.1
	l2.3-1.5l-0.2-0.2c-0.5-0.5-0.9-1-1.2-1.3l-0.4-0.5c-0.7-0.8-1.2-1.5-1.6-2.1l-1.8-3.1c1,0.2,2.2,0,3.5-0.4c1-0.3,1.7-0.8,2.2-1.3
	c0.5-0.5,0.8-1.1,1-1.7l1.2-4.4h18.6l-1,3.5h-8.8c-1.3,0-2.4,0.3-3.3,0.9c-0.9,0.6-1.6,1.5-1.9,2.6c-0.5,2,0,4.1,1.7,6.3
	c0.6,0.8,1.5,1.7,2.6,2.7l0.1,0.1l2.1-1.4l-0.2-0.2c-1-0.9-1.8-1.7-2.3-2.4c-1.4-1.8-1.9-3.6-1.4-5.2c0.2-0.6,0.5-1,1-1.3
	c0.6-0.3,1.3-0.5,2.3-0.5h7.7l-3,11.2h2.6l4.4-16.4h6.3l-4.4,16.4h2.6l4.4-16.4h8.7c0.4,0.4,0.6,0.7,0.7,1c0.4,0.8,0.6,1.5,0.4,2.2
	c-0.3,1-0.8,1.7-1.6,2.2c-0.7,0.4-1.6,0.6-2.7,0.6c-0.1,0-0.3,0-0.6-0.1c-0.1,0-0.2,0-0.3-0.1c-0.1,0-0.3-0.1-0.4-0.1l-0.2,0l0,0.2
	c-0.5,1.7-0.2,3.2,0.9,4.6c1,1.4,2.8,2.1,5.3,2.1h0.1c1.5,0,2.9-0.3,4.3-0.8c0.3-0.1,0.7-0.3,1.1-0.5l-1.4,5.1h2.6l4.4-16.4h3.5
	l0.5-1.8h-25.1C129.5,315.4,129.2,314.2,128.8,313.5 M141.7,319.7c-0.1-0.2-0.2-0.5-0.4-0.9h6.7l-2.2,8.4c-0.7,0.6-1.2,1-1.6,1.2
	c-1.4,0.8-2.8,1.3-4.2,1.3h-0.1c-1.8,0-3-0.6-3.6-1.7c-0.2-0.4-0.3-0.9-0.4-1.5c1-0.2,1.9-0.4,2.5-0.7c1.9-0.8,3-2,3.5-3.7
	C142.1,321.5,142.1,320.6,141.7,319.7 M120,312.1c0.6-0.5,1.3-0.7,2.3-0.7c0.7,0,1.3,0.1,1.8,0.3c1.1,0.4,1.9,1.3,2.5,2.6
	c0.3,0.5,0.5,1.4,0.7,2.7h-8.1c-0.1-0.2-0.2-0.5-0.3-0.7c-0.2-0.8-0.2-1.6,0-2.3C119,313.2,119.4,312.5,120,312.1"/>
<path class="st3" d="M-131.2,367.3l5.3-19.2l8.6,11.3c0.2,0.3,0.5,0.7,0.7,1c0.2,0.4,0.5,0.8,0.7,1.2l3.6-12.8h2.8l-5.3,19.2
	l-8.8-11.5c-0.2-0.3-0.4-0.6-0.7-1c-0.2-0.3-0.4-0.7-0.5-1.1l-3.6,12.9H-131.2z M-94.5,367.4l-3.6-19.2l-14.3,19.2h3.2l3.5-4.8h7.3
	l0.8,4.8H-94.5z M-100.9,355.9c0.2-0.3,0.4-0.6,0.6-1c0.2-0.4,0.4-0.7,0.6-1.1c0,0.4,0,0.8,0,1.2c0,0.4,0,0.7,0.1,0.9l0.7,4.2h-5.2
	L-100.9,355.9z M-80.5,351.4l0.7-2.6h-12.8l-0.7,2.6h4.9l-4.4,15.9h3l4.4-15.9H-80.5z M-79,367.3l5.1-18.5h-3l-5.1,18.5H-79z
	 M-54.2,358.1c0.4-1.3,0.5-2.5,0.3-3.7c-0.2-1.2-0.6-2.2-1.3-3.2c-0.7-0.9-1.6-1.6-2.6-2.1c-1.1-0.5-2.2-0.7-3.6-0.7
	c-1.3,0-2.7,0.2-4,0.7c-1.3,0.5-2.6,1.2-3.8,2.1c-1.2,0.9-2.2,2-3,3.1c-0.8,1.2-1.4,2.4-1.8,3.7c-0.4,1.3-0.5,2.6-0.3,3.7
	c0.2,1.2,0.6,2.2,1.3,3.1c0.7,0.9,1.5,1.6,2.6,2.1c1.1,0.5,2.3,0.7,3.6,0.7c1.3,0,2.6-0.3,4-0.7s2.6-1.2,3.8-2.1
	c1.2-0.9,2.2-2,3-3.1C-55.2,360.7-54.6,359.5-54.2,358.1 M-57.3,358.1c-0.3,0.9-0.7,1.8-1.2,2.6c-0.6,0.8-1.3,1.6-2.1,2.2
	c-0.8,0.7-1.7,1.2-2.6,1.5c-0.9,0.3-1.8,0.5-2.7,0.5c-0.9,0-1.7-0.2-2.5-0.5c-0.7-0.3-1.3-0.8-1.8-1.5c-0.5-0.7-0.7-1.4-0.8-2.2
	c-0.1-0.8,0-1.7,0.2-2.6c0.3-0.9,0.7-1.8,1.3-2.7c0.6-0.8,1.3-1.6,2.1-2.2c0.8-0.7,1.7-1.2,2.6-1.5c0.9-0.4,1.8-0.5,2.7-0.5
	c0.9,0,1.7,0.2,2.5,0.5c0.7,0.4,1.3,0.8,1.7,1.5c0.5,0.7,0.7,1.4,0.8,2.2C-57,356.3-57.1,357.2-57.3,358.1 M-51.1,367.3l3.6-12.9
	c0.2,0.4,0.3,0.7,0.5,1.1c0.2,0.3,0.4,0.7,0.7,1l8.8,11.5l5.3-19.2h-2.8l-3.6,12.8c-0.2-0.5-0.5-0.9-0.7-1.2c-0.2-0.4-0.5-0.7-0.7-1
	l-8.6-11.3l-5.3,19.2H-51.1z M-17.2,367.4l-3.6-19.2l-14.3,19.2h3.2l3.5-4.8h7.3l0.8,4.8H-17.2z M-23.6,355.9c0.2-0.3,0.4-0.6,0.6-1
	c0.2-0.4,0.4-0.7,0.6-1.1c0,0.4,0,0.8,0,1.2c0,0.4,0,0.7,0.1,0.9l0.7,4.2h-5.2L-23.6,355.9z M-5.2,367.3l0.7-2.7h-6.7l4.4-15.8h-3
	l-5.1,18.5H-5.2z M11.9,359h0.6c1.3,0,2.4-0.1,3-0.2c0.7-0.1,1.3-0.4,1.9-0.7c0.7-0.4,1.3-1,1.9-1.7c0.5-0.7,0.9-1.5,1.2-2.4
	c0.2-0.9,0.3-1.7,0.2-2.4c-0.1-0.7-0.4-1.3-0.9-1.7c-0.4-0.3-0.9-0.6-1.5-0.7c-0.6-0.1-1.6-0.2-2.9-0.2h-4.6l-5.1,18.5h2.8l2.3-8.3
	H11.9z M13,351.4h0.8c1.6,0,2.6,0.2,3.1,0.6c0.5,0.4,0.6,1.1,0.3,2.1c-0.3,0.9-0.7,1.6-1.4,1.9c-0.7,0.4-1.8,0.5-3.5,0.5h-0.8
	L13,351.4z M31.8,367.4l-3.6-19.2l-14.3,19.2H17l3.5-4.8h7.3l0.8,4.8H31.8z M25.4,355.9c0.2-0.3,0.4-0.6,0.6-1
	c0.2-0.4,0.4-0.7,0.6-1.1c0,0.4,0,0.8,0,1.2c0,0.4,0,0.7,0.1,0.9l0.7,4.2h-5.2L25.4,355.9z M36.5,367.3l2.4-8.5l9.2-10h-3l-5.7,6.2
	c-0.2,0.2-0.4,0.5-0.6,0.7c-0.2,0.3-0.4,0.5-0.6,0.8c-0.1-0.3-0.1-0.6-0.2-0.8c-0.1-0.3-0.1-0.5-0.2-0.6l-2.1-6.3h-3.2l3.4,10
	l-2.4,8.5H36.5z M60.4,367.3h2.8l0.9-19.3l-8.6,11.7c-0.1,0.1-0.2,0.3-0.4,0.5c-0.6,0.8-1.1,1.5-1.4,2c-0.1-0.6-0.1-1.2-0.2-1.6
	c-0.1-0.4-0.1-0.7-0.1-0.9l-2.2-11.7l-9.7,19.3h2.8l4.5-9.1c0.2-0.5,0.4-0.9,0.6-1.3c0.2-0.4,0.3-0.8,0.4-1.2c0,0.4,0,0.8,0.1,1.2
	c0,0.4,0.1,0.8,0.2,1.2l2,10.1l7.6-9.9c0.3-0.4,0.6-0.9,0.9-1.3c0.3-0.4,0.5-0.8,0.7-1.3c0,0.4-0.1,0.8-0.2,1.3
	c-0.1,0.6-0.2,1-0.2,1.2L60.4,367.3z M76.5,367.3l0.7-2.7h-7.3l1.7-6h7.3l0.7-2.6h-7.3l1.3-4.6h7.3l0.7-2.5H71.3l-5.1,18.5H76.5z
	 M83.2,367.3l3.6-12.9c0.2,0.4,0.3,0.7,0.5,1.1c0.2,0.3,0.4,0.7,0.7,1l8.8,11.5l5.3-19.2h-2.8l-3.6,12.8c-0.2-0.5-0.5-0.9-0.7-1.2
	c-0.2-0.4-0.5-0.7-0.7-1l-8.6-11.3l-5.3,19.2H83.2z M117,351.4l0.7-2.6h-12.8l-0.7,2.6h4.9l-4.4,15.9h3l4.4-15.9H117z M115.4,363.6
	c-0.1,1.3,0.3,2.4,1.1,3.1c0.8,0.7,2,1.1,3.6,1.1c1.9,0,3.5-0.5,4.9-1.5c1.4-1,2.3-2.4,2.8-4.2c0.3-1.2,0.3-2.2-0.2-3
	c-0.5-0.8-1.5-1.6-3.1-2.5c-0.1,0-0.2-0.1-0.3-0.2c-1.8-1-2.6-2-2.3-3.1c0.2-0.7,0.6-1.3,1.2-1.7c0.6-0.4,1.3-0.6,2.1-0.6
	c0.6,0,1,0.1,1.4,0.4c0.4,0.3,0.7,0.7,0.9,1.3l2.7-1.2c-0.1-1-0.5-1.7-1.3-2.3c-0.8-0.5-1.8-0.8-3.2-0.8c-1.7,0-3.1,0.5-4.4,1.4
	c-1.3,0.9-2.1,2.2-2.5,3.7c-0.3,1.2-0.3,2.1,0.2,2.9c0.5,0.8,1.6,1.7,3.3,2.7c0.1,0.1,0.3,0.2,0.5,0.3c1.6,0.8,2.2,1.8,1.9,2.9
	c-0.2,0.8-0.7,1.5-1.3,2c-0.7,0.5-1.4,0.7-2.3,0.7c-0.9,0-1.7-0.2-2.1-0.7c-0.5-0.4-0.7-1.1-0.7-1.9L115.4,363.6 M156.7,350.3
	c-0.8-0.6-1.6-1.1-2.5-1.4c-0.9-0.3-1.9-0.5-3-0.5c-1.4,0-2.7,0.2-4,0.7c-1.3,0.5-2.6,1.2-3.7,2.1c-1.2,0.9-2.2,1.9-3,3.1
	c-0.8,1.2-1.4,2.5-1.8,3.8c-0.4,1.4-0.5,2.6-0.3,3.8c0.1,1.2,0.5,2.2,1.2,3.1c0.7,0.9,1.5,1.6,2.6,2c1.1,0.5,2.3,0.7,3.7,0.7
	c1.1,0,2.2-0.1,3.2-0.4c1-0.3,2-0.7,3-1.3l0.9-3.4c-1.1,0.8-2.2,1.4-3.3,1.8c-1.1,0.4-2.2,0.6-3.3,0.6c-1.9,0-3.3-0.6-4.1-1.9
	c-0.9-1.3-1-2.9-0.5-4.9c0.6-2.1,1.7-3.7,3.3-5c1.6-1.3,3.4-1.9,5.5-1.9c1,0,2,0.2,2.8,0.5c0.8,0.4,1.6,0.9,2.2,1.6L156.7,350.3z
	 M177,358.1c0.4-1.3,0.5-2.5,0.3-3.7c-0.2-1.2-0.6-2.2-1.3-3.2c-0.7-0.9-1.6-1.6-2.6-2.1c-1.1-0.5-2.2-0.7-3.6-0.7
	c-1.3,0-2.7,0.2-4,0.7c-1.3,0.5-2.6,1.2-3.8,2.1c-1.2,0.9-2.2,2-3,3.1c-0.8,1.2-1.4,2.4-1.8,3.7c-0.4,1.3-0.5,2.6-0.3,3.7
	c0.2,1.2,0.6,2.2,1.3,3.1c0.7,0.9,1.5,1.6,2.6,2.1c1.1,0.5,2.3,0.7,3.6,0.7c1.3,0,2.6-0.3,4-0.7s2.6-1.2,3.8-2.1
	c1.2-0.9,2.2-2,3-3.1C176,360.7,176.6,359.5,177,358.1 M173.9,358.1c-0.3,0.9-0.7,1.8-1.2,2.6c-0.6,0.8-1.3,1.6-2.1,2.2
	c-0.8,0.7-1.7,1.2-2.6,1.5c-0.9,0.3-1.8,0.5-2.7,0.5c-0.9,0-1.7-0.2-2.5-0.5c-0.7-0.3-1.3-0.8-1.8-1.5c-0.5-0.7-0.7-1.4-0.8-2.2
	c-0.1-0.8,0-1.7,0.2-2.6c0.3-0.9,0.7-1.8,1.3-2.7c0.6-0.8,1.3-1.6,2.1-2.2c0.8-0.7,1.7-1.2,2.6-1.5c0.9-0.4,1.8-0.5,2.7-0.5
	c0.9,0,1.7,0.2,2.5,0.5c0.7,0.4,1.3,0.8,1.7,1.5c0.5,0.7,0.7,1.4,0.8,2.2C174.2,356.3,174.1,357.2,173.9,358.1 M183.3,359.1l3.8,8.3
	h3.4l-4-8.4c1.4-0.2,2.6-0.7,3.6-1.5c0.9-0.8,1.6-2,2-3.5c0.2-0.8,0.3-1.6,0.2-2.3c-0.1-0.7-0.4-1.3-0.8-1.7
	c-0.4-0.4-0.9-0.6-1.5-0.8c-0.6-0.2-1.6-0.2-2.8-0.2H183l-5.1,18.5h2.8l2.3-8.3H183.3z M185.3,351.4h0.5c1.5,0,2.5,0.2,2.9,0.6
	c0.4,0.4,0.5,1.1,0.2,2.2c-0.3,0.9-0.7,1.6-1.3,2c-0.6,0.4-1.7,0.6-3.3,0.6h-0.5L185.3,351.4z M199.2,359h0.6c1.3,0,2.4-0.1,3-0.2
	c0.7-0.1,1.3-0.4,1.9-0.7c0.7-0.4,1.3-1,1.9-1.7c0.5-0.7,0.9-1.5,1.2-2.4c0.3-0.9,0.3-1.7,0.2-2.4c-0.1-0.7-0.4-1.3-0.9-1.7
	c-0.4-0.3-0.9-0.6-1.5-0.7c-0.6-0.1-1.6-0.2-2.9-0.2H198l-5.1,18.5h2.8l2.3-8.3H199.2z M200.3,351.4h0.8c1.6,0,2.6,0.2,3.1,0.6
	c0.5,0.4,0.6,1.1,0.3,2.1c-0.3,0.9-0.7,1.6-1.4,1.9c-0.7,0.4-1.8,0.5-3.5,0.5h-0.8L200.3,351.4z M228.2,358.1
	c0.4-1.3,0.5-2.5,0.3-3.7c-0.2-1.2-0.6-2.2-1.3-3.2c-0.7-0.9-1.6-1.6-2.6-2.1c-1.1-0.5-2.3-0.7-3.6-0.7c-1.3,0-2.7,0.2-4,0.7
	c-1.3,0.5-2.6,1.2-3.8,2.1c-1.2,0.9-2.2,2-3,3.1c-0.8,1.2-1.4,2.4-1.8,3.7c-0.4,1.3-0.5,2.6-0.3,3.7c0.2,1.2,0.6,2.2,1.3,3.1
	c0.7,0.9,1.5,1.6,2.6,2.1c1.1,0.5,2.3,0.7,3.6,0.7c1.3,0,2.6-0.3,4-0.7s2.6-1.2,3.8-2.1c1.2-0.9,2.2-2,3-3.1
	C227.2,360.7,227.8,359.5,228.2,358.1 M225.1,358.1c-0.3,0.9-0.7,1.8-1.2,2.6c-0.6,0.8-1.3,1.6-2.1,2.2c-0.8,0.7-1.7,1.2-2.6,1.5
	c-0.9,0.3-1.8,0.5-2.7,0.5c-0.9,0-1.7-0.2-2.5-0.5c-0.7-0.3-1.3-0.8-1.8-1.5c-0.5-0.7-0.7-1.4-0.8-2.2c-0.1-0.8,0-1.7,0.2-2.6
	c0.3-0.9,0.7-1.8,1.3-2.7c0.6-0.8,1.3-1.6,2.1-2.2c0.8-0.7,1.7-1.2,2.6-1.5c0.9-0.4,1.8-0.5,2.7-0.5c0.9,0,1.7,0.2,2.5,0.5
	c0.7,0.4,1.3,0.8,1.7,1.5c0.5,0.7,0.7,1.4,0.8,2.2C225.4,356.3,225.3,357.2,225.1,358.1 M233.5,359.1l3.9,8.3h3.4l-4-8.4
	c1.4-0.2,2.6-0.7,3.6-1.5c1-0.8,1.6-2,2-3.5c0.2-0.8,0.3-1.6,0.2-2.3c-0.1-0.7-0.4-1.3-0.8-1.7c-0.4-0.4-0.9-0.6-1.5-0.8
	c-0.6-0.2-1.6-0.2-2.8-0.2h-4.2l-5.1,18.5h2.8l2.3-8.3H233.5z M235.5,351.4h0.5c1.5,0,2.5,0.2,2.9,0.6c0.4,0.4,0.5,1.1,0.2,2.2
	c-0.3,0.9-0.7,1.6-1.3,2c-0.6,0.4-1.7,0.6-3.3,0.6H234L235.5,351.4z M259,367.4l-3.6-19.2l-14.3,19.2h3.2l3.5-4.8h7.3l0.8,4.8H259z
	 M252.6,355.9c0.2-0.3,0.4-0.6,0.6-1c0.2-0.4,0.4-0.7,0.6-1.1c0,0.4,0,0.8,0,1.2c0,0.4,0,0.7,0.1,0.9l0.7,4.2h-5.2L252.6,355.9z
	 M273,351.4l0.7-2.6h-12.8l-0.7,2.6h4.9l-4.4,15.9h3l4.4-15.9H273z M274.5,367.3l5.1-18.5h-3l-5.1,18.5H274.5z M299.3,358.1
	c0.4-1.3,0.5-2.5,0.3-3.7c-0.2-1.2-0.6-2.2-1.3-3.2c-0.7-0.9-1.6-1.6-2.6-2.1c-1.1-0.5-2.2-0.7-3.6-0.7c-1.3,0-2.7,0.2-4,0.7
	c-1.3,0.5-2.6,1.2-3.8,2.1c-1.2,0.9-2.2,2-3,3.1c-0.8,1.2-1.4,2.4-1.8,3.7c-0.4,1.3-0.5,2.6-0.3,3.7c0.2,1.2,0.6,2.2,1.3,3.1
	c0.7,0.9,1.5,1.6,2.6,2.1c1.1,0.5,2.3,0.7,3.6,0.7c1.3,0,2.6-0.3,4-0.7s2.6-1.2,3.8-2.1c1.2-0.9,2.2-2,3-3.1
	C298.3,360.7,298.9,359.5,299.3,358.1 M296.1,358.1c-0.3,0.9-0.7,1.8-1.2,2.6c-0.6,0.8-1.3,1.6-2.1,2.2c-0.8,0.7-1.7,1.2-2.6,1.5
	c-0.9,0.3-1.8,0.5-2.7,0.5c-0.9,0-1.7-0.2-2.5-0.5c-0.7-0.3-1.3-0.8-1.8-1.5c-0.5-0.7-0.7-1.4-0.8-2.2c-0.1-0.8,0-1.7,0.2-2.6
	c0.3-0.9,0.7-1.8,1.3-2.7c0.6-0.8,1.3-1.6,2.1-2.2c0.8-0.7,1.7-1.2,2.6-1.5c0.9-0.4,1.8-0.5,2.7-0.5c0.9,0,1.7,0.2,2.5,0.5
	c0.7,0.4,1.3,0.8,1.7,1.5c0.5,0.7,0.7,1.4,0.8,2.2C296.5,356.3,296.4,357.2,296.1,358.1 M301.9,367.3l3.6-12.9
	c0.2,0.4,0.3,0.7,0.5,1.1c0.2,0.3,0.4,0.7,0.7,1l8.8,11.5l5.3-19.2H318l-3.6,12.8c-0.2-0.5-0.5-0.9-0.7-1.2c-0.2-0.4-0.5-0.7-0.7-1
	l-8.6-11.3l-5.3,19.2H301.9z M347.2,358.1c0.4-1.3,0.5-2.5,0.3-3.7c-0.2-1.2-0.6-2.2-1.3-3.2c-0.7-0.9-1.6-1.6-2.6-2.1
	c-1.1-0.5-2.2-0.7-3.6-0.7c-1.3,0-2.7,0.2-4,0.7c-1.3,0.5-2.6,1.2-3.8,2.1c-1.2,0.9-2.2,2-3,3.1c-0.8,1.2-1.4,2.4-1.8,3.7
	c-0.4,1.3-0.5,2.6-0.3,3.7c0.2,1.2,0.6,2.2,1.3,3.1c0.7,0.9,1.5,1.6,2.6,2.1c1.1,0.5,2.3,0.7,3.6,0.7c1.3,0,2.6-0.3,4-0.7
	s2.6-1.2,3.8-2.1c1.2-0.9,2.2-2,3-3.1C346.2,360.7,346.8,359.5,347.2,358.1 M344,358.1c-0.3,0.9-0.7,1.8-1.2,2.6
	c-0.6,0.8-1.3,1.6-2.1,2.2c-0.8,0.7-1.7,1.2-2.6,1.5c-0.9,0.3-1.8,0.5-2.7,0.5c-0.9,0-1.7-0.2-2.5-0.5c-0.7-0.3-1.3-0.8-1.8-1.5
	c-0.5-0.7-0.7-1.4-0.8-2.2c-0.1-0.8,0-1.7,0.2-2.6c0.3-0.9,0.7-1.8,1.3-2.7c0.6-0.8,1.3-1.6,2.1-2.2c0.8-0.7,1.7-1.2,2.6-1.5
	c0.9-0.4,1.8-0.5,2.7-0.5c0.9,0,1.7,0.2,2.5,0.5c0.7,0.4,1.3,0.8,1.7,1.5c0.5,0.7,0.7,1.4,0.8,2.2
	C344.4,356.3,344.3,357.2,344,358.1 M350,367.3l2.4-8.7h7.3l0.7-2.6h-7.3l1.3-4.6h7.3l0.7-2.5h-10.3l-5.1,18.5H350z M371.5,367.3
	l5.1-18.5h-3l-5.1,18.5H371.5z M377,367.3l3.6-12.9c0.2,0.4,0.3,0.7,0.5,1.1c0.2,0.3,0.4,0.7,0.7,1l8.8,11.5l5.3-19.2h-2.8
	l-3.6,12.8c-0.2-0.5-0.5-0.9-0.7-1.2c-0.2-0.4-0.5-0.7-0.7-1l-8.6-11.3l-5.3,19.2H377z M398,367.3h0.8c2.2,0,3.8-0.1,4.9-0.4
	c1.1-0.3,2.2-0.7,3.1-1.3c1.3-0.8,2.4-1.9,3.3-3.1c0.9-1.3,1.6-2.7,2-4.4c0.5-1.6,0.6-3.1,0.4-4.4c-0.2-1.3-0.7-2.3-1.6-3.1
	c-0.6-0.6-1.5-1.1-2.5-1.3c-1-0.3-2.8-0.4-5.5-0.4h-4.1l-5.1,18.5H398z M401.4,351.5h1.1h1.1c1.6,0,2.7,0.1,3.3,0.3
	c0.7,0.2,1.2,0.5,1.6,0.9c0.5,0.6,0.9,1.3,1,2.2c0.1,0.9,0,1.9-0.3,3.1c-0.3,1.2-0.8,2.2-1.4,3.1c-0.6,0.9-1.3,1.6-2.2,2.2
	c-0.6,0.4-1.3,0.8-2.1,0.9c-0.7,0.2-1.8,0.3-3.2,0.3h-2.5L401.4,351.5z M414.6,367.3l5.1-18.5h-3l-5.1,18.5H414.6z M434.3,367.4
	l-3.6-19.2l-14.3,19.2h3.2l3.5-4.8h7.3l0.8,4.8H434.3z M427.9,355.9c0.2-0.3,0.4-0.6,0.6-1c0.2-0.4,0.4-0.7,0.6-1.1
	c0,0.4,0,0.8,0,1.2c0,0.4,0,0.7,0.1,0.9l0.7,4.2h-5.2L427.9,355.9z"/>
</svg>
